<mxfile host="www.draw.io" modified="2020-02-20T09:02:01.783Z" agent="Mozilla/5.0 (Windows NT 6.1; Win64; x64) AppleWebKit/537.36 (KHTML, like Gecko) Chrome/79.0.3945.130 Safari/537.36" etag="WYdpKvWC1vIjhIN5Xtrw" version="12.7.2" type="github">
  <diagram id="1g1KsQu2lwjrwWcJqxQV" name="Page-1">
    <mxGraphModel dx="1182" dy="715" grid="1" gridSize="10" guides="1" tooltips="1" connect="1" arrows="1" fold="1" page="1" pageScale="1" pageWidth="827" pageHeight="1169" math="0" shadow="0">
      <root>
        <mxCell id="0" />
        <mxCell id="1" parent="0" />
        <mxCell id="RjK2tQvfMAR0bIPLNAO6-40" style="edgeStyle=orthogonalEdgeStyle;rounded=0;orthogonalLoop=1;jettySize=auto;html=1;entryX=0;entryY=0.5;entryDx=0;entryDy=0;" edge="1" parent="1" source="RjK2tQvfMAR0bIPLNAO6-1" target="RjK2tQvfMAR0bIPLNAO6-38">
          <mxGeometry relative="1" as="geometry" />
        </mxCell>
        <mxCell id="RjK2tQvfMAR0bIPLNAO6-41" style="edgeStyle=orthogonalEdgeStyle;rounded=0;orthogonalLoop=1;jettySize=auto;html=1;entryX=0;entryY=0.5;entryDx=0;entryDy=0;" edge="1" parent="1" source="RjK2tQvfMAR0bIPLNAO6-1" target="RjK2tQvfMAR0bIPLNAO6-39">
          <mxGeometry relative="1" as="geometry" />
        </mxCell>
        <mxCell id="RjK2tQvfMAR0bIPLNAO6-1" value="疫情违规分析设备" style="rounded=1;whiteSpace=wrap;html=1;" vertex="1" parent="1">
          <mxGeometry x="354" y="340" width="120" height="60" as="geometry" />
        </mxCell>
        <mxCell id="RjK2tQvfMAR0bIPLNAO6-5" style="edgeStyle=orthogonalEdgeStyle;rounded=0;orthogonalLoop=1;jettySize=auto;html=1;exitX=1;exitY=0.5;exitDx=0;exitDy=0;entryX=0;entryY=0.5;entryDx=0;entryDy=0;" edge="1" parent="1" source="RjK2tQvfMAR0bIPLNAO6-2" target="RjK2tQvfMAR0bIPLNAO6-1">
          <mxGeometry relative="1" as="geometry" />
        </mxCell>
        <mxCell id="RjK2tQvfMAR0bIPLNAO6-2" value="摄像机" style="ellipse;whiteSpace=wrap;html=1;" vertex="1" parent="1">
          <mxGeometry x="140" y="230" width="120" height="80" as="geometry" />
        </mxCell>
        <mxCell id="RjK2tQvfMAR0bIPLNAO6-7" style="edgeStyle=orthogonalEdgeStyle;rounded=0;orthogonalLoop=1;jettySize=auto;html=1;entryX=0;entryY=0.5;entryDx=0;entryDy=0;" edge="1" parent="1" source="RjK2tQvfMAR0bIPLNAO6-4" target="RjK2tQvfMAR0bIPLNAO6-1">
          <mxGeometry relative="1" as="geometry" />
        </mxCell>
        <mxCell id="RjK2tQvfMAR0bIPLNAO6-4" value="智能门铃" style="ellipse;whiteSpace=wrap;html=1;" vertex="1" parent="1">
          <mxGeometry x="140" y="430" width="120" height="80" as="geometry" />
        </mxCell>
        <mxCell id="RjK2tQvfMAR0bIPLNAO6-38" value="违规处理平台" style="rounded=1;whiteSpace=wrap;html=1;" vertex="1" parent="1">
          <mxGeometry x="560" y="240" width="120" height="60" as="geometry" />
        </mxCell>
        <mxCell id="RjK2tQvfMAR0bIPLNAO6-39" value="播报设备" style="rounded=1;whiteSpace=wrap;html=1;" vertex="1" parent="1">
          <mxGeometry x="560" y="430" width="120" height="60" as="geometry" />
        </mxCell>
        <mxCell id="RjK2tQvfMAR0bIPLNAO6-45" style="edgeStyle=orthogonalEdgeStyle;rounded=0;orthogonalLoop=1;jettySize=auto;html=1;entryX=0.5;entryY=0;entryDx=0;entryDy=0;" edge="1" parent="1" source="RjK2tQvfMAR0bIPLNAO6-43" target="RjK2tQvfMAR0bIPLNAO6-44">
          <mxGeometry relative="1" as="geometry" />
        </mxCell>
        <mxCell id="RjK2tQvfMAR0bIPLNAO6-43" value="信息接入" style="ellipse;whiteSpace=wrap;html=1;" vertex="1" parent="1">
          <mxGeometry x="354" y="580" width="120" height="80" as="geometry" />
        </mxCell>
        <mxCell id="RjK2tQvfMAR0bIPLNAO6-47" style="edgeStyle=orthogonalEdgeStyle;rounded=0;orthogonalLoop=1;jettySize=auto;html=1;entryX=0.5;entryY=0;entryDx=0;entryDy=0;" edge="1" parent="1" source="RjK2tQvfMAR0bIPLNAO6-44" target="RjK2tQvfMAR0bIPLNAO6-46">
          <mxGeometry relative="1" as="geometry" />
        </mxCell>
        <mxCell id="RjK2tQvfMAR0bIPLNAO6-44" value="接入设备数据转化" style="rounded=1;whiteSpace=wrap;html=1;" vertex="1" parent="1">
          <mxGeometry x="354" y="690" width="120" height="60" as="geometry" />
        </mxCell>
        <mxCell id="RjK2tQvfMAR0bIPLNAO6-49" style="edgeStyle=orthogonalEdgeStyle;rounded=0;orthogonalLoop=1;jettySize=auto;html=1;entryX=0.5;entryY=0;entryDx=0;entryDy=0;" edge="1" parent="1" source="RjK2tQvfMAR0bIPLNAO6-46" target="RjK2tQvfMAR0bIPLNAO6-48">
          <mxGeometry relative="1" as="geometry" />
        </mxCell>
        <mxCell id="RjK2tQvfMAR0bIPLNAO6-54" style="edgeStyle=orthogonalEdgeStyle;rounded=0;orthogonalLoop=1;jettySize=auto;html=1;entryX=0;entryY=0.5;entryDx=0;entryDy=0;" edge="1" parent="1" source="RjK2tQvfMAR0bIPLNAO6-46" target="RjK2tQvfMAR0bIPLNAO6-53">
          <mxGeometry relative="1" as="geometry" />
        </mxCell>
        <mxCell id="RjK2tQvfMAR0bIPLNAO6-46" value="智能判别违规" style="rounded=1;whiteSpace=wrap;html=1;" vertex="1" parent="1">
          <mxGeometry x="354" y="780" width="120" height="60" as="geometry" />
        </mxCell>
        <mxCell id="RjK2tQvfMAR0bIPLNAO6-52" style="edgeStyle=orthogonalEdgeStyle;rounded=0;orthogonalLoop=1;jettySize=auto;html=1;entryX=0.5;entryY=0;entryDx=0;entryDy=0;" edge="1" parent="1" source="RjK2tQvfMAR0bIPLNAO6-48" target="RjK2tQvfMAR0bIPLNAO6-50">
          <mxGeometry relative="1" as="geometry" />
        </mxCell>
        <mxCell id="RjK2tQvfMAR0bIPLNAO6-48" value="输入播报设备匹配" style="rounded=1;whiteSpace=wrap;html=1;" vertex="1" parent="1">
          <mxGeometry x="354" y="870" width="120" height="60" as="geometry" />
        </mxCell>
        <mxCell id="RjK2tQvfMAR0bIPLNAO6-50" value="违规推送播报设备" style="rounded=1;whiteSpace=wrap;html=1;" vertex="1" parent="1">
          <mxGeometry x="354" y="960" width="120" height="60" as="geometry" />
        </mxCell>
        <mxCell id="RjK2tQvfMAR0bIPLNAO6-53" value="违规推送违规处理平台" style="rounded=1;whiteSpace=wrap;html=1;" vertex="1" parent="1">
          <mxGeometry x="560" y="780" width="120" height="60" as="geometry" />
        </mxCell>
        <mxCell id="RjK2tQvfMAR0bIPLNAO6-71" style="edgeStyle=orthogonalEdgeStyle;rounded=0;orthogonalLoop=1;jettySize=auto;html=1;entryX=0.25;entryY=0;entryDx=0;entryDy=0;fontSize=12;" edge="1" parent="1" source="RjK2tQvfMAR0bIPLNAO6-55" target="RjK2tQvfMAR0bIPLNAO6-68">
          <mxGeometry relative="1" as="geometry" />
        </mxCell>
        <mxCell id="RjK2tQvfMAR0bIPLNAO6-55" value="摄像头A" style="rounded=1;whiteSpace=wrap;html=1;" vertex="1" parent="1">
          <mxGeometry x="190" y="1320" width="120" height="60" as="geometry" />
        </mxCell>
        <mxCell id="RjK2tQvfMAR0bIPLNAO6-75" style="edgeStyle=orthogonalEdgeStyle;rounded=0;orthogonalLoop=1;jettySize=auto;html=1;entryX=0.75;entryY=0;entryDx=0;entryDy=0;fontSize=12;" edge="1" parent="1" source="RjK2tQvfMAR0bIPLNAO6-56" target="RjK2tQvfMAR0bIPLNAO6-68">
          <mxGeometry relative="1" as="geometry" />
        </mxCell>
        <mxCell id="RjK2tQvfMAR0bIPLNAO6-56" value="摄像头B" style="rounded=1;whiteSpace=wrap;html=1;" vertex="1" parent="1">
          <mxGeometry x="510" y="1320" width="120" height="60" as="geometry" />
        </mxCell>
        <mxCell id="RjK2tQvfMAR0bIPLNAO6-57" value="喇叭A" style="rounded=1;whiteSpace=wrap;html=1;" vertex="1" parent="1">
          <mxGeometry x="190" y="1460" width="120" height="60" as="geometry" />
        </mxCell>
        <mxCell id="RjK2tQvfMAR0bIPLNAO6-58" value="喇叭B" style="rounded=1;whiteSpace=wrap;html=1;" vertex="1" parent="1">
          <mxGeometry x="510" y="1460" width="120" height="60" as="geometry" />
        </mxCell>
        <mxCell id="RjK2tQvfMAR0bIPLNAO6-60" value="" style="rounded=1;whiteSpace=wrap;html=1;dashed=1;fillColor=none;" vertex="1" parent="1">
          <mxGeometry x="155" y="1240" width="190" height="350" as="geometry" />
        </mxCell>
        <mxCell id="RjK2tQvfMAR0bIPLNAO6-63" value="" style="rounded=1;whiteSpace=wrap;html=1;dashed=1;fillColor=none;" vertex="1" parent="1">
          <mxGeometry x="475" y="1240" width="190" height="350" as="geometry" />
        </mxCell>
        <mxCell id="RjK2tQvfMAR0bIPLNAO6-64" value="门禁A" style="text;html=1;strokeColor=none;fillColor=none;align=center;verticalAlign=middle;whiteSpace=wrap;rounded=0;dashed=1;fontSize=16;" vertex="1" parent="1">
          <mxGeometry x="220" y="1270" width="60" height="20" as="geometry" />
        </mxCell>
        <mxCell id="RjK2tQvfMAR0bIPLNAO6-67" value="门禁B" style="text;html=1;strokeColor=none;fillColor=none;align=center;verticalAlign=middle;whiteSpace=wrap;rounded=0;dashed=1;fontSize=16;" vertex="1" parent="1">
          <mxGeometry x="540" y="1270" width="60" height="20" as="geometry" />
        </mxCell>
        <mxCell id="RjK2tQvfMAR0bIPLNAO6-70" style="edgeStyle=orthogonalEdgeStyle;rounded=0;orthogonalLoop=1;jettySize=auto;html=1;entryX=1;entryY=0.5;entryDx=0;entryDy=0;fontSize=12;" edge="1" parent="1" source="RjK2tQvfMAR0bIPLNAO6-68" target="RjK2tQvfMAR0bIPLNAO6-57">
          <mxGeometry relative="1" as="geometry" />
        </mxCell>
        <mxCell id="RjK2tQvfMAR0bIPLNAO6-76" style="edgeStyle=orthogonalEdgeStyle;rounded=0;orthogonalLoop=1;jettySize=auto;html=1;entryX=0;entryY=0.5;entryDx=0;entryDy=0;fontSize=12;" edge="1" parent="1" source="RjK2tQvfMAR0bIPLNAO6-68" target="RjK2tQvfMAR0bIPLNAO6-58">
          <mxGeometry relative="1" as="geometry" />
        </mxCell>
        <mxCell id="RjK2tQvfMAR0bIPLNAO6-68" value="疫情违规分析设备" style="rounded=1;whiteSpace=wrap;html=1;fillColor=none;fontSize=12;" vertex="1" parent="1">
          <mxGeometry x="361" y="1385" width="106" height="60" as="geometry" />
        </mxCell>
        <mxCell id="RjK2tQvfMAR0bIPLNAO6-72" value="1" style="text;html=1;strokeColor=none;fillColor=none;align=center;verticalAlign=middle;whiteSpace=wrap;rounded=0;dashed=1;fontSize=12;" vertex="1" parent="1">
          <mxGeometry x="330" y="1330" width="40" height="20" as="geometry" />
        </mxCell>
        <mxCell id="RjK2tQvfMAR0bIPLNAO6-73" value="1" style="text;html=1;strokeColor=none;fillColor=none;align=center;verticalAlign=middle;whiteSpace=wrap;rounded=0;dashed=1;fontSize=12;" vertex="1" parent="1">
          <mxGeometry x="290" y="1425" width="40" height="20" as="geometry" />
        </mxCell>
        <mxCell id="RjK2tQvfMAR0bIPLNAO6-77" value="2" style="text;html=1;strokeColor=none;fillColor=none;align=center;verticalAlign=middle;whiteSpace=wrap;rounded=0;dashed=1;fontSize=12;" vertex="1" parent="1">
          <mxGeometry x="450" y="1330" width="40" height="20" as="geometry" />
        </mxCell>
        <mxCell id="RjK2tQvfMAR0bIPLNAO6-78" value="2" style="text;html=1;strokeColor=none;fillColor=none;align=center;verticalAlign=middle;whiteSpace=wrap;rounded=0;dashed=1;fontSize=12;" vertex="1" parent="1">
          <mxGeometry x="490" y="1420" width="40" height="20" as="geometry" />
        </mxCell>
      </root>
    </mxGraphModel>
  </diagram>
</mxfile>
